<svg xmlns="http://www.w3.org/2000/svg" aria-hidden="true" style="position:absolute;width:0;height:0;overflow:hidden">
  <defs>
   <symbol id="icon-facebook" viewBox="0 0 32 32">
    <path d="M31.238 16.092C31.238 7.626 24.415.762 16 .762S.762 7.626.762 16.092c0 7.651 5.571 13.994 12.857 15.145V20.525h-3.87v-4.433h3.87v-3.377c0-3.841 2.276-5.965 5.756-5.965 1.667 0 3.412.3 3.412.3v3.773h-1.922c-1.892 0-2.484 1.181-2.484 2.395v2.874h4.226l-.675 4.433h-3.55v10.713c7.286-1.15 12.857-7.493 12.857-15.146z"/>
  </symbol>
    <symbol id="icon-youtube" viewBox="0 0 32 32">
    <path d="M31.794 9.299c0-2.812-2.069-5.075-4.626-5.075A227.205 227.205 0 0 0 16.564 4h-1.125c-3.6 0-7.138.063-10.601.225C2.288 4.225.219 6.5.219 9.312A92.957 92.957 0 0 0 0 15.986a96.87 96.87 0 0 0 .213 6.681c0 2.812 2.069 5.094 4.619 5.094 3.638.169 7.37.244 11.164.237a224.3 224.3 0 0 0 11.164-.237c2.557 0 4.626-2.281 4.626-5.094.15-2.231.219-4.456.213-6.687a90.948 90.948 0 0 0-.204-6.681zM12.94 22.118V9.837l9.064 6.137-9.064 6.144z"/>
  </symbol>
    <symbol id="icon-twitter" viewBox="0 0 32 32">
    <path d="M32 6.233c-1.2.522-2.47.865-3.77 1.02a6.502 6.502 0 0 0 2.889-3.573 13.189 13.189 0 0 1-4.171 1.567A6.623 6.623 0 0 0 22.154 3.2c-3.628 0-6.564 2.893-6.564 6.46-.003.496.054.991.169 1.473A18.723 18.723 0 0 1 2.226 4.38a6.386 6.386 0 0 0-.893 3.247c0 2.24 1.169 4.22 2.933 5.38a6.499 6.499 0 0 1-2.985-.807v.08c0 3.133 2.267 5.74 5.267 6.333a6.733 6.733 0 0 1-1.729.227 6.31 6.31 0 0 1-1.234-.12c.834 2.567 3.261 4.433 6.137 4.487a13.304 13.304 0 0 1-8.155 2.767A13.671 13.671 0 0 1 0 25.881a18.578 18.578 0 0 0 10.049 2.92c12.091 0 18.696-9.847 18.696-18.387 0-.28-.007-.56-.021-.833a13.222 13.222 0 0 0 3.275-3.347z"/>
  </symbol>
  <symbol id="icon-instagram" viewBox="0 0 32 32">
    <path d="M22.349 3.301a6.368 6.368 0 0 1 6.349 6.349v12.698a6.368 6.368 0 0 1-6.349 6.349H9.651a6.37 6.37 0 0 1-6.349-6.349V9.65a6.37 6.37 0 0 1 6.349-6.349h12.698zm0-2.539H9.651c-4.889 0-8.889 4-8.889 8.889v12.698c0 4.889 4 8.889 8.889 8.889h12.698c4.889 0 8.889-4 8.889-8.889V9.651c0-4.889-4-8.889-8.889-8.889z"/>
    <path d="M24.254 9.654a1.905 1.905 0 1 1 .003-3.812 1.905 1.905 0 0 1-.004 3.813zM16 10.923a5.079 5.079 0 1 1 .003 10.156 5.079 5.079 0 0 1-.004-10.155zm0-2.54a7.62 7.62 0 0 0-7.473 9.105 7.624 7.624 0 0 0 5.986 5.986 7.616 7.616 0 0 0 7.821-3.24 7.62 7.62 0 0 0-6.335-11.853z"/>
  </symbol>
    <symbol id="email" viewBox="0 0 46 32">
    <path d="M38.667 0h-34.667c-2.206 0-4 1.794-4 4v24c0 2.206 1.794 4 4 4h34.667c2.206 0 4-1.794 4-4v-24c0-2.206-1.794-4-4-4zM38.667 2.667c0.181 0 0.353 0.038 0.511 0.103l-17.844 15.466-17.844-15.466c0.158-0.066 0.33-0.103 0.511-0.103h34.667zM38.667 29.333h-34.667c-0.736 0-1.333-0.598-1.333-1.333v-22.413l17.793 15.421c0.251 0.217 0.563 0.326 0.874 0.326s0.622-0.108 0.874-0.326l17.793-15.421v22.413c0 0.736-0.598 1.333-1.333 1.333z"></path>
  </symbol>
<symbol id="icon-clock" viewBox="0 0 32 32">
<path stroke-linejoin="round" fill='none' stroke-linecap="round" stroke-miterlimit="4" stroke-width="2.9714" d="M15.998 29.334c7.364 0 13.333-5.97 13.333-13.333s-5.97-13.333-13.333-13.333-13.333 5.97-13.333 13.333c0 7.364 5.97 13.333 13.333 13.333z"></path>
<path fill='none' stroke-linejoin="round" stroke-linecap="round" stroke-miterlimit="4" stroke-width="2.9714" d="M16 8v8l5.333 2.667"></path>
</symbol>
  
    </defs>
    
</svg>