<svg xmlns="http://www.w3.org/2000/svg" aria-hidden="true" style="position:absolute;width:0;height:0;overflow:hidden">
  <defs>
    <symbol id="icon-facebook" viewBox="0 0 32 32">
      <path d="M31.238 16.092C31.238 7.626 24.415.762 16 .762S.762 7.626.762 16.092c0 7.651 5.571 13.994 12.857 15.145V20.525h-3.87v-4.433h3.87v-3.377c0-3.841 2.276-5.965 5.756-5.965 1.667 0 3.412.3 3.412.3v3.773h-1.922c-1.892 0-2.484 1.181-2.484 2.395v2.874h4.226l-.675 4.433h-3.55v10.713c7.286-1.15 12.857-7.493 12.857-15.146z"/>
    </symbol>
    <symbol id="icon-youtube" viewBox="0 0 32 32">
      <path d="M31.794 9.299c0-2.812-2.069-5.075-4.626-5.075A227.205 227.205 0 0 0 16.564 4h-1.125c-3.6 0-7.138.063-10.601.225C2.288 4.225.219 6.5.219 9.312A92.957 92.957 0 0 0 0 15.986a96.87 96.87 0 0 0 .213 6.681c0 2.812 2.069 5.094 4.619 5.094 3.638.169 7.37.244 11.164.237a224.3 224.3 0 0 0 11.164-.237c2.557 0 4.626-2.281 4.626-5.094.15-2.231.219-4.456.213-6.687a90.948 90.948 0 0 0-.204-6.681zM12.94 22.118V9.837l9.064 6.137-9.064 6.144z"/>
    </symbol>
    <symbol id="icon-twitter" viewBox="0 0 32 32">
      <path d="M32 6.233c-1.2.522-2.47.865-3.77 1.02a6.502 6.502 0 0 0 2.889-3.573 13.189 13.189 0 0 1-4.171 1.567A6.623 6.623 0 0 0 22.154 3.2c-3.628 0-6.564 2.893-6.564 6.46-.003.496.054.991.169 1.473A18.723 18.723 0 0 1 2.226 4.38a6.386 6.386 0 0 0-.893 3.247c0 2.24 1.169 4.22 2.933 5.38a6.499 6.499 0 0 1-2.985-.807v.08c0 3.133 2.267 5.74 5.267 6.333a6.733 6.733 0 0 1-1.729.227 6.31 6.31 0 0 1-1.234-.12c.834 2.567 3.261 4.433 6.137 4.487a13.304 13.304 0 0 1-8.155 2.767A13.671 13.671 0 0 1 0 25.881a18.578 18.578 0 0 0 10.049 2.92c12.091 0 18.696-9.847 18.696-18.387 0-.28-.007-.56-.021-.833a13.222 13.222 0 0 0 3.275-3.347z"/>
    </symbol>
    <symbol id="icon-instagram" viewBox="0 0 32 32">
      <path d="M22.349 3.301a6.368 6.368 0 0 1 6.349 6.349v12.698a6.368 6.368 0 0 1-6.349 6.349H9.651a6.37 6.37 0 0 1-6.349-6.349V9.65a6.37 6.37 0 0 1 6.349-6.349h12.698zm0-2.539H9.651c-4.889 0-8.889 4-8.889 8.889v12.698c0 4.889 4 8.889 8.889 8.889h12.698c4.889 0 8.889-4 8.889-8.889V9.651c0-4.889-4-8.889-8.889-8.889z"/>
      <path d="M24.254 9.654a1.905 1.905 0 1 1 .003-3.812 1.905 1.905 0 0 1-.004 3.813zM16 10.923a5.079 5.079 0 1 1 .003 10.156 5.079 5.079 0 0 1-.004-10.155zm0-2.54a7.62 7.62 0 0 0-7.473 9.105 7.624 7.624 0 0 0 5.986 5.986 7.616 7.616 0 0 0 7.821-3.24 7.62 7.62 0 0 0-6.335-11.853z"/>
    </symbol>
    <symbol id="email" viewBox="0 0 46 32">
      <path d="M38.667 0h-34.667c-2.206 0-4 1.794-4 4v24c0 2.206 1.794 4 4 4h34.667c2.206 0 4-1.794 4-4v-24c0-2.206-1.794-4-4-4zM38.667 2.667c0.181 0 0.353 0.038 0.511 0.103l-17.844 15.466-17.844-15.466c0.158-0.066 0.33-0.103 0.511-0.103h34.667zM38.667 29.333h-34.667c-0.736 0-1.333-0.598-1.333-1.333v-22.413l17.793 15.421c0.251 0.217 0.563 0.326 0.874 0.326s0.622-0.108 0.874-0.326l17.793-15.421v22.413c0 0.736-0.598 1.333-1.333 1.333z"></path>
    </symbol>
    <symbol id="icon-clock" viewBox="0 0 32 32">
      <path stroke-linejoin="round" fill='none' stroke-linecap="round" stroke-miterlimit="4" stroke-width="2.9714" d="M15.998 29.334c7.364 0 13.333-5.97 13.333-13.333s-5.97-13.333-13.333-13.333-13.333 5.97-13.333 13.333c0 7.364 5.97 13.333 13.333 13.333z"></path>
      <path fill='none' stroke-linejoin="round" stroke-linecap="round" stroke-miterlimit="4" stroke-width="2.9714" d="M16 8v8l5.333 2.667"></path>
    </symbol>
    <symbol id="icon-burger" viewBox="0 0 32 32">
      <path stroke-linejoin="round" stroke-linecap="round" stroke-miterlimit="4" stroke-width="2.2857" d="M4 16h24M4 8h24M4 24h16"></path>
    </symbol>
    <symbol id="icon-x" viewBox="0 0 32 32">
      <path stroke-linejoin="round" stroke-linecap="round" stroke-miterlimit="4" stroke-width="2" d="M22.666 9.333l-13.333 13.333M9.333 9.333l13.333 13.333"></path>
    </symbol>
    <symbol id="icon-search-1" viewBox="0 0 32 32">
      <path stroke-linejoin="round" stroke-linecap="round" stroke-miterlimit="4" stroke-width="2.6667" d="M14.667 25.333c5.891 0 10.667-4.776 10.667-10.667s-4.776-10.667-10.667-10.667c-5.891 0-10.667 4.776-10.667 10.667s4.776 10.667 10.667 10.667z"></path>
      <path stroke-linejoin="round" stroke-linecap="round" stroke-miterlimit="4" stroke-width="2.6667" d="M28.001 28l-5.8-5.8"></path>
    </symbol>
    <symbol id="icon-logo-1" viewBox="0 0 32 32">
      <path  d="M9.6 0h12.8c5.302 0 9.6 4.298 9.6 9.6v12.8c0 5.302-4.298 9.6-9.6 9.6h-12.8c-5.302 0-9.6-4.298-9.6-9.6v-12.8c0-5.302 4.298-9.6 9.6-9.6z"></path>
      <path stroke-width="1.6" d="M7.039 7.117v4.072c0 1.163 0.507 2.192 1.294 2.858 0.385 0.326 0.639 0.766 0.639 1.254v6.797c0 0.756 0.649 1.369 1.449 1.369s1.449-0.613 1.449-1.369v-6.797c0-0.488 0.254-0.928 0.639-1.254 0.787-0.666 1.294-1.696 1.294-6.858v0"></path>
      <path stroke-width="1.6" d="M10.42 11.603v-4.563"></path>
      <path stroke-width="1.6" d="M23.466 8c0-0.504-0.433-0.913-0.966-0.913h-0.966c-1.601 0-2.899 1.226-2.899 2.738v5.476c0 1.19 0.809 2.193 1.933 2.57v4.227c0 0.756 0.649 1.369 1.449 1.369s1.449-0.613 1.449-1.369v-14.098z"></path>
    </symbol>
    <symbol id="icon-arrowRight" viewBox="0 0 17 32">
      <path opacity="0.73" d="M0.758 0.842c-0.24 0.265-0.431 0.58-0.561 0.927s-0.197 0.718-0.197 1.094c0 0.375 0.067 0.747 0.197 1.094s0.321 0.662 0.561 0.927l10.056 11.12-10.056 11.12c-0.485 0.536-0.757 1.263-0.757 2.020s0.272 1.485 0.757 2.020c0.485 0.536 1.142 0.837 1.827 0.837s1.343-0.301 1.827-0.837l11.896-13.154c0.24-0.265 0.431-0.58 0.561-0.927s0.197-0.718 0.197-1.094c0-0.375-0.067-0.747-0.197-1.094s-0.321-0.662-0.561-0.927l-11.896-13.154c-0.985-1.089-2.644-1.089-3.654 0.029z"></path>
    </symbol>
    <symbol id="icon-arrowLeft" viewBox="0 0 17 32">
      <path opacity="0.73" d="M16.309 0.842c0.24 0.265 0.431 0.58 0.561 0.927s0.197 0.718 0.197 1.094c0 0.375-0.067 0.747-0.197 1.094s-0.321 0.662-0.561 0.927l-10.056 11.12 10.056 11.12c0.485 0.536 0.757 1.263 0.757 2.020s-0.272 1.485-0.757 2.020c-0.485 0.536-1.142 0.837-1.827 0.837s-1.343-0.301-1.827-0.837l-11.896-13.154c-0.24-0.265-0.431-0.58-0.561-0.927s-0.197-0.718-0.197-1.094c0-0.375 0.067-0.747 0.197-1.094s0.321-0.662 0.561-0.927l11.896-13.154c0.985-1.089 2.644-1.089 3.654 0.029z"></path>
    </symbol>
    <symbol id="icon-del" viewBox="0 0 32 32">
      <path stroke-linejoin="round" stroke-linecap="round" stroke-miterlimit="4" stroke-width="2.7429" d="M21.333 8v-1.067c0-1.493 0-2.24-0.291-2.811-0.256-0.502-0.664-0.91-1.165-1.165-0.57-0.291-1.317-0.291-2.811-0.291h-2.133c-1.493 0-2.24 0-2.811 0.291-0.502 0.256-0.91 0.664-1.165 1.165-0.291 0.57-0.291 1.317-0.291 2.811v1.067M13.333 15.333v6.667M18.667 15.333v6.667M4 8h24M25.333 8v14.933c0 2.24 0 3.36-0.436 4.216-0.384 0.753-0.995 1.365-1.748 1.748-0.856 0.436-1.976 0.436-4.216 0.436h-5.867c-2.24 0-3.36 0-4.216-0.436-0.753-0.384-1.365-0.995-1.748-1.748-0.436-0.856-0.436-1.976-0.436-4.216v-14.933"></path>
    </symbol>
      <symbol id="icon-pick" viewBox="0 0 32 32">
    <path style="fill: var(--color1, #8baa36)" d="M24.876 3.239c0.867-1.279 2.607-1.613 3.886-0.746s1.613 2.607 0.746 3.886l-15.174 22.381c-1.11 1.637-3.521 1.637-4.631 0l-7.207-10.631c-0.867-1.279-0.533-3.019 0.746-3.886s3.019-0.533 3.886 0.746l4.892 7.215 12.858-18.966z"></path>
  </symbol>
  <symbol id="icon-cross" viewBox="0 0 20 20">
<path d="M10 8.586l-7.071-7.071-1.414 1.414 7.071 7.071-7.071 7.071 1.414 1.414 7.071-7.071 7.071 7.071 1.414-1.414-7.071-7.071 7.071-7.071-1.414-1.414-7.071 7.071z"></path>
</symbol>
 

  <symbol id="icon-arrowRight" viewBox="0 0 17 32">
<path opacity="0.73" d="M0.758 0.842c-0.24 0.265-0.431 0.58-0.561 0.927s-0.197 0.718-0.197 1.094c0 0.375 0.067 0.747 0.197 1.094s0.321 0.662 0.561 0.927l10.056 11.12-10.056 11.12c-0.485 0.536-0.757 1.263-0.757 2.020s0.272 1.485 0.757 2.020c0.485 0.536 1.142 0.837 1.827 0.837s1.343-0.301 1.827-0.837l11.896-13.154c0.24-0.265 0.431-0.58 0.561-0.927s0.197-0.718 0.197-1.094c0-0.375-0.067-0.747-0.197-1.094s-0.321-0.662-0.561-0.927l-11.896-13.154c-0.985-1.089-2.644-1.089-3.654 0.029z"></path>
</symbol>
<symbol id="icon-arrowLeft" viewBox="0 0 17 32">
<path opacity="0.73" d="M16.309 0.842c0.24 0.265 0.431 0.58 0.561 0.927s0.197 0.718 0.197 1.094c0 0.375-0.067 0.747-0.197 1.094s-0.321 0.662-0.561 0.927l-10.056 11.12 10.056 11.12c0.485 0.536 0.757 1.263 0.757 2.020s-0.272 1.485-0.757 2.020c-0.485 0.536-1.142 0.837-1.827 0.837s-1.343-0.301-1.827-0.837l-11.896-13.154c-0.24-0.265-0.431-0.58-0.561-0.927s-0.197-0.718-0.197-1.094c0-0.375 0.067-0.747 0.197-1.094s0.321-0.662 0.561-0.927l11.896-13.154c0.985-1.089 2.644-1.089 3.654 0.029z"></path>
</symbol>
<symbol id="icon-arrow-down" viewBox="0 0 53 32">
<path stroke-linejoin="round" stroke-linecap="round" stroke-miterlimit="4" stroke-width="6.9333" d="M8 6.667l18.667 18.667 18.667-18.667"></path>
</symbol>
  <symbol id="F6C23E" viewBox="0 0 24 24">
    <path d="M10 0C4.47656 0 0 4.47656 0 10C0 15.5234 4.47656 20 10 20C15.5234 20 20 15.5234 20 10C20 4.47656 15.5234 0 10 0ZM9.0625 5.9375C9.0625 5.42188 9.48438 5 10 5C10.5156 5 10.9375 5.41992 10.9375 5.9375V10.9375C10.9375 11.4551 10.5176 11.875 10 11.875C9.48242 11.875 9.0625 11.457 9.0625 10.9375V5.9375ZM10 15.625C9.32187 15.625 8.77188 15.075 8.77188 14.3969C8.77188 13.7188 9.32148 13.1687 10 13.1687C10.6785 13.1687 11.2281 13.7188 11.2281 14.3969C11.2266 15.0742 10.6797 15.625 10 15.625Z" fill="#F6C23E"/>
  </symbol>
  <symbol id="E74A3B" viewBox="0 0 24 24">
    <path d="M0 10C0 4.47656 4.47656 0 10 0C15.5234 0 20 4.47656 20 10C20 15.5234 15.5234 20 10 20C4.47656 20 0 15.5234 0 10ZM6.83594 8.12891L8.67578 9.96484L6.83594 11.8359C6.47266 12.2031 6.47266 12.7969 6.83594 13.1289C7.20312 13.5273 7.79688 13.5273 8.12891 13.1289L9.96484 11.3242L11.8359 13.1289C12.2031 13.5273 12.7969 13.5273 13.1289 13.1289C13.5273 12.7969 13.5273 12.2031 13.1289 11.8359L11.3242 9.96484L13.1289 8.12891C13.5273 7.79688 13.5273 7.20312 13.1289 6.83594C12.7969 6.47266 12.2031 6.47266 11.8359 6.83594L9.96484 8.67578L8.12891 6.83594C7.79688 6.47266 7.20312 6.47266 6.83594 6.83594C6.47266 7.20312 6.47266 7.79688 6.83594 8.12891Z" fill="#E74A3B"/>
  </symbol>
  <symbol id="3CBC81" viewBox="0 0 24 24">
    <path d="M0 10C0 4.47656 4.47656 0 10 0C15.5234 0 20 4.47656 20 10C20 15.5234 15.5234 20 10 20C4.47656 20 0 15.5234 0 10ZM14.5234 8.27344C14.9492 7.84766 14.9492 7.15234 14.5234 6.72656C14.0977 6.30078 13.4023 6.30078 12.9766 6.72656L8.75 10.9531L7.02344 9.22656C6.59766 8.80078 5.90234 8.80078 5.47656 9.22656C5.05078 9.65234 5.05078 10.3477 5.47656 10.7734L7.97656 13.2734C8.40234 13.6992 9.09766 13.6992 9.52344 13.2734L14.5234 8.27344Z" fill="#3CBC81"/>
  </symbol>
  <symbol id="icon-password" viewBox="0 0 24 24">
    <path d="M17 11.5V8.5C17 5.73858 14.7614 3.5 12 3.5C9.23858 3.5 7 5.73858 7 8.5V11.5M7.8 21.5H16.2C17.8802 21.5 18.7202 21.5 19.362 21.173C19.9265 20.8854 20.3854 20.4265 20.673 19.862C21 19.2202 21 18.3802 21 16.7V16.3C21 14.6198 21 13.7798 20.673 13.138C20.3854 12.5735 19.9265 12.1146 19.362 11.827C18.7202 11.5 17.8802 11.5 16.2 11.5H7.8C6.11984 11.5 5.27976 11.5 4.63803 11.827C4.07354 12.1146 3.6146 12.5735 3.32698 13.138C3 13.7798 3 14.6198 3 16.3V16.7C3 18.3802 3 19.2202 3.32698 19.862C3.6146 20.4265 4.07354 20.8854 4.63803 21.173C5.27976 21.5 6.11984 21.5 7.8 21.5Z" stroke-width="2" stroke-linecap="round" stroke-linejoin="round"/>
  </symbol>
    <symbol id="icon-name" viewBox="0 0 24 24">
    <path d="M20 21.5C20 20.1044 20 19.4067 19.8278 18.8389C19.44 17.5605 18.4395 16.56 17.1611 16.1722C16.5933 16 15.8956 16 14.5 16H9.5C8.10444 16 7.40665 16 6.83886 16.1722C5.56045 16.56 4.56004 17.5605 4.17224 18.8389C4 19.4067 4 20.1044 4 21.5M16.5 8C16.5 10.4853 14.4853 12.5 12 12.5C9.51472 12.5 7.5 10.4853 7.5 8C7.5 5.51472 9.51472 3.5 12 3.5C14.4853 3.5 16.5 5.51472 16.5 8Z" stroke-width="2" stroke-linecap="round" stroke-linejoin="round"/>
  </symbol>
    </defs>
</svg>